# xmcd
#
# Track frame offsets:
#	150
#	19222
#	39461
#	56261
#	75801
#	91459
#	108109
#	127257
#	145623
#	165941
#	182180
#	196973
#	214621
#	230358
#	244958
#	265009
#	280005
#	302158
#	319743
#
# Disc length: 4533 seconds
#
# Revision: 0
# Processed by: cddbd v1.5.2PL0 Copyright (c) Steve Scherf et al.
# Submitted via: EasyCDDAExtractor 8.2.2.1
#
DISCID=f611b313
DTITLE=Various Artist - Love Stories
DYEAR=2011
DGENRE=Pop
TTITLE0=Michael Learns To Rock\n - That's Why You Go Away 
TTITLE1=Toni Braxton\n - Un-break My Heart 
TTITLE2=M2M\n - The Day You Went Away 
TTITLE3=All-4-one\n - I Swear 
TTITLE4=Sixpence None The Richer\n - Kiss Me 
TTITLE5=Faith Hill\n - There You'll Be 
TTITLE6=The Corrs\n - What Can I Do 
TTITLE7=Trademark\n - Only Love 
TTITLE8=Michael Learns To Rock\n - You Took My Heart Away 
TTITLE9=Billy Joel\n - Just The Way You Are
TTITLE10=Shakin' Stevens\n - Because I Love You 
TTITLE11=Natalie Cole\n - Miss You Like Crazy 
TTITLE12=Dionne Warwick\n - I'll Never Love This Way Again 
TTITLE13=Dan Fogelberg\n -  Longer 
TTITLE14=Rick Price\n - Heaven Knows 
TTITLE15=Journey\n - Open Arms 
TTITLE16=Surface\n - Shower Me With You Love 
TTITLE17=Barry Manilow\n - I Write The Songs 
TTITLE18=Earth Wind and Fire\n -  After The Love Has Gone 
EXTD=
EXTT0=
EXTT1=
EXTT2=
EXTT3=
EXTT4=
EXTT5=
EXTT6=
EXTT7=
EXTT8=
EXTT9=
EXTT10=
EXTT11=
EXTT12=
EXTT13=
EXTT14=
EXTT15=
EXTT16=
EXTT17=
EXTT18=
PLAYORDER=
